<?xml version="1.0" encoding="UTF-8"?>
<!-- Generator: visioncortex VTracer 0.6.4 -->
<svg version="1.1" xmlns="http://www.w3.org/2000/svg" width="1535" height="1024">
<path d="M0 0 C506.55 0 1013.1 0 1535 0 C1535 337.92 1535 675.84 1535 1024 C1028.45 1024 521.9 1024 0 1024 C0 686.08 0 348.16 0 0 Z " fill="#FBFAFA" transform="translate(0,0)"/>
<path d="M0 0 C15.51 0 31.02 0 47 0 C47.474375 3.63 47.94875 7.26 48.4375 11 C48.58501709 12.10730469 48.73253418 13.21460938 48.88452148 14.35546875 C50.59411058 27.74590328 51.1346372 41.14481703 51.26036072 54.62843895 C51.28195931 56.93108956 51.30891089 59.23362943 51.33703613 61.53620911 C51.40575888 67.24525081 51.46596879 72.95437521 51.52606201 78.66351318 C51.57748212 83.51989642 51.63241843 88.37621606 51.69187927 93.23250771 C51.71795937 95.47498662 51.73905425 97.71747392 51.7598877 99.96000671 C52.06560025 132.44044501 52.06560025 132.44044501 64 162 C64.37898438 162.57234375 64.75796875 163.1446875 65.1484375 163.734375 C68.77411988 168.64972963 73.37106064 171.40924243 79.3515625 172.3828125 C88.25115483 172.80660261 96.06129872 170.0016098 102.875 164.3125 C108.59174047 158.82297497 113.16807499 152.43381094 117.89453125 146.1015625 C121.63547815 141.11135571 125.6389353 136.45925002 130 132 C130.98419922 130.96166016 130.98419922 130.96166016 131.98828125 129.90234375 C141.49238087 120.61302604 152.40706932 115.24693928 165.75 115.1875 C173.97739968 115.38654999 180.83187598 116.75970128 188 121 C188.79277344 121.44601563 189.58554688 121.89203125 190.40234375 122.3515625 C211.04383471 134.98344927 219.31593282 156.49526066 225.24511719 178.69702148 C226.54058823 183.51409515 228.07662494 188.08371726 230.05078125 192.671875 C231.1160037 195.28451936 231.92413793 197.92742435 232.75 200.625 C235.1008165 207.80651392 238.48369485 214.38048659 241.98291016 221.05566406 C242.93274772 222.87143611 243.8636032 224.69710259 244.79296875 226.5234375 C248.60297722 233.86446069 252.96447306 240.44774808 258 247 C258.77730469 248.06734375 258.77730469 248.06734375 259.5703125 249.15625 C269.46535374 262.48223518 281.77309101 273.8651328 294 285 C322.82359968 311.32815549 352.32155457 343.51323445 354.90332031 384.83251953 C356.21914838 414.33232146 354.16090271 442.89909455 333.82861328 466.0559082 C331.62264166 468.44500102 329.32976503 470.73208714 327 473 C326.24976563 473.74765625 325.49953125 474.4953125 324.7265625 475.265625 C309.12044606 490.02664488 286.57383002 497.79913231 265.27734375 497.28515625 C251.10136341 496.46934616 237.51843593 494.42272497 224.11621094 489.71337891 C219.10212718 488.02312132 213.9930015 486.6151989 208.91137695 485.14331055 C205.38076442 484.10015069 202.03175079 483.01376608 198.6484375 481.546875 C193.60877781 479.41014563 188.43698657 477.90921527 183.1875 476.375 C182.15818359 476.06304687 181.12886719 475.75109375 180.06835938 475.4296875 C173.68831563 473.55723949 167.63767884 472.35770719 161 472 C160.18942139 471.95053223 159.37884277 471.90106445 158.54370117 471.85009766 C130.84043631 470.47079509 113.16830847 481.08716773 90.87158203 496.18017578 C82.8555975 501.55599009 74.80131496 506.06941275 66 510 C65.030625 510.47566406 64.06125 510.95132812 63.0625 511.44140625 C42.77125819 520.88247015 21.80589545 519.28269973 0 518 C0 347.06 0 176.12 0 0 Z " fill="#FDEADB" transform="translate(0,0)"/>
<path d="M0 0 C0.66 0 1.32 0 2 0 C2 166.32 2 332.64 2 504 C-5.53876895 505.67528199 -11.40099504 506.33621462 -18.9375 506.3125 C-19.95779297 506.32861328 -20.97808594 506.34472656 -22.02929688 506.36132812 C-33.67797735 506.36876187 -43.89760523 503.20099674 -52.78515625 495.44140625 C-59.38750565 488.40002595 -63.12202776 478.85193816 -63.1328125 469.28125 C-63.13410156 468.18425781 -63.13539063 467.08726562 -63.13671875 465.95703125 C-63.13285156 464.81621094 -63.12898438 463.67539062 -63.125 462.5 C-63.12886719 461.35917969 -63.13273437 460.21835937 -63.13671875 459.04296875 C-63.13478516 457.39748047 -63.13478516 457.39748047 -63.1328125 455.71875 C-63.13168457 454.71779297 -63.13055664 453.71683594 -63.12939453 452.68554688 C-63.01279916 450.26564303 -62.5832273 448.33206229 -62 446 C-60.5885334 421.59232076 -62.06157799 399.56462385 -78 380 C-78.74121094 379.0821875 -79.48242188 378.164375 -80.24609375 377.21875 C-94.89622723 360.09084353 -116.23321253 350.43431084 -137.4609375 343.94140625 C-153.62889559 338.96002044 -168.19670956 331.0765913 -181 320 C-181.74378906 319.35675781 -182.48757813 318.71351563 -183.25390625 318.05078125 C-196.18426064 305.98076355 -204.68620133 288.93003398 -209 272 C-209.22558594 271.16855469 -209.45117188 270.33710938 -209.68359375 269.48046875 C-215.45344882 244.21248275 -209.29584964 216.71655441 -196 195 C-193.53404213 191.46546038 -190.87157816 188.21156465 -188 185 C-187.26136719 184.16726562 -186.52273438 183.33453125 -185.76171875 182.4765625 C-174.16407022 170.13863854 -160.1501079 163.62227348 -144.23168945 158.46948242 C-127.03447322 152.88733665 -113.49629932 146.10345022 -104 130 C-102.17259432 126.39366094 -100.53380802 122.73973417 -99 119 C-98.65453125 118.19304687 -98.3090625 117.38609375 -97.953125 116.5546875 C-95.10407918 108.9183106 -94.05266477 100.62922149 -92.97558594 92.58276367 C-89.46907186 66.75030376 -77.05296479 45.74499157 -56.36523438 29.73486328 C-40.66128931 18.10453264 -22.50068 9.68193529 -4.4453125 2.42578125 C-1.22163892 1.34930032 -1.22163892 1.34930032 0 0 Z " fill="#FDEADB" transform="translate(1533,13)"/>
</svg>
